<svg width="103" height="103" viewBox="0 0 103 103" fill="none" xmlns="http://www.w3.org/2000/svg">
<path d="M13 17.7V35.3L9.1 38.7C4.6 42.5 3.3 46.4 5 51.5C7.2 58.2 16.5 61.9 22.9 58.6C26.8 56.5 30 51.6 30 47.5C30 43.8 26.8 38.4 24.1 37.5C22.5 37 22 36 22 33.4C22 30.1 22.1 30 26 30H30V25.5V21H26H22V17V13H26H30V8.5V4H26C22.7 4 22 3.7 22 2C22 0.300007 21.3 3.8147e-06 17.5 3.8147e-06H13V17.7ZM20 44.4C20.6 45.2 21 46.9 20.8 48.2C20.2 52.4 13 51.4 13 47.1C13 43.4 17.6 41.6 20 44.4Z" fill="#112235" fill-opacity="0.95"/>
<path d="M73 66.5V99H86H99L98.8 66.7L98.5 34.5L85.8 34.2L73 33.9V66.5ZM90 66.5V90H86H82V66.5V43H86H90V66.5Z" fill="#112235" fill-opacity="0.95"/>
<path d="M39 75V99H51.5H64V75V51H51.5H39V75ZM56 75V90H51.5H47V75V60H51.5H56V75Z" fill="#112235" fill-opacity="0.95"/>
<path d="M4 84V99H17H30V84V69H17H4V84ZM21 83.5V90H17H13V83.5V77H17H21V83.5Z" fill="#112235" fill-opacity="0.95"/>
</svg>
