<svg width="103" height="103" viewBox="0 0 103 103" fill="none" xmlns="http://www.w3.org/2000/svg">
<path d="M33 10.5C26.7 11.8 11 17.1 8.00002 19C6.70002 19.8 6.80002 20.4 8.40002 23.5C10.6 27.5 10.3 27.5 19.6 23.6C31 18.8 37.6 17.6 51.5 17.6C65.4 17.6 72 18.8 83.4 23.6C92.6 27.5 92.3 27.5 94.4 23.5C96.1 20.4 96.2 19.7 94.9 18.9C91.8 16.9 76.1 11.7 69.2 10.4C60.2 8.69995 41.8 8.69995 33 10.5Z" fill="#112235" fill-opacity="0.95"/>
<path d="M47.0001 26C44.7001 27.7 44.7001 27.9 46.3001 30.4C48.5001 33.7 48.4001 34.6 46.0001 37.7C43.4001 41 43.5001 44.3 46.2001 49.1C48.7001 53.5 48.7001 53.6 51.8001 51.4L54.1001 49.8L52.0001 46.3L50.0001 42.8L52.5001 39.8C55.5001 36.2 55.6001 34.1 53.0001 29C50.5001 24 49.9001 23.8 47.0001 26Z" fill="#112235" fill-opacity="0.95"/>
<path d="M29.6 30.2999C27.9 31.4999 27.9 31.7999 29.5 35.1999C31.2 38.5999 31.2 38.7999 29 41.7999C26.4 45.1999 26.6 50.2999 29.5 54.5999C31.3 57.3999 31.9 57.4999 34.5 55.5999C36.4 54.1999 36.4 54.0999 34.7 50.4999C32.9 46.7999 33 46.6999 35 44.5999C37.7 41.6999 37.7 35.6999 34.9 31.8999C32.6 28.5999 32.1 28.4999 29.6 30.2999Z" fill="#112235" fill-opacity="0.95"/>
<path d="M63.6 30.5C61.8 31.8 61.8 32.1 63.4 34.4C65.5 37.6 65.4 38.9 63 42C60.5 45.2 60.5 48.1 63 53C65.2 57.3 66.4 57.8 69.3 55.6C71 54.3 71 54 69.6 51.1C67.6 47.4 67.6 46.3 69.5 44.4C72.2 41.7 72.4 38 70.2 33.4C67.9 28.7 66.7 28.2 63.6 30.5Z" fill="#112235" fill-opacity="0.95"/>
<path d="M43.5 60.6C32.9 63.2 21.7 70.6 16.5 78.3C12.6 84 9 94.3 9 99.6C9 102.9 9.1 103 12.9 103H16.7L17.4 98.2C18.8 87.8 27 76.7 36.7 72.3C44.5 68.7 45 69.9 38 75.3C31.3 80.5 30 82.9 30 89.8C30 93.9 30.5 94.9 34.2 98.7C38.1 102.7 38.8 103 43.6 103C49.3 103 50.6 102 51.6 97.2C52.1 94.6 52.7 94 54.9 94C58.7 94 60 92.3 60 86.9V82.3L66.1 81.6C69.5 81.3 72.9 80.5 73.7 79.9C74.7 79 75.5 79.1 77 80.5C78.1 81.5 79 82.9 79 83.6C79 86.1 76.7 90 74.8 90.6C71.4 91.6 69 95.2 69 99.2C69 103 69 103 73 103C76.3 103 77 102.7 77 101C77 99.6 77.7 99 79.3 99C80.5 99 82.5 98.7 83.8 98.4C85.7 97.9 86 98.2 86 100.4C86 102.8 86.4 103 90 103C93.9 103 94 102.9 94 99.6C94 93.9 90.3 83.7 86 77.8C81.8 71.9 71.7 64.4 65 62.1C61.2 60.8 46.7 59.8 43.5 60.6ZM51 81C51 85.8 50.9 86 48.2 86C44.6 86 43 87.6 43 91.2C43 92.7 42.6 94 42.2 94C40.5 94 39 91.5 39 88.6C39 86.1 40.1 84.6 44.8 80.8C47.9 78.2 50.6 76.1 50.8 76C50.9 76 51 78.2 51 81Z" fill="#112235" fill-opacity="0.95"/>
</svg>
