<svg width="62" height="83" viewBox="0 0 62 83" fill="none" xmlns="http://www.w3.org/2000/svg">
<path d="M47.604 17.0897V39.1636L31.0784 55.698L14.5543 39.1636V17.0897L22.8025 12.2434V36.8143L31.0784 45.0953L39.3558 36.8143V12.2434L47.604 17.0897Z" fill="#112235"/>
<path d="M31.063 9.83417L28.9963 11.0657L29.0117 13.5011L31.0953 14.705L33.1619 13.4734L33.145 11.038L31.063 9.83417Z" fill="#3F8733"/>
<path d="M25.7696 60.4473L31.8174 72.7397H29.76L25.765 64.5048L21.7699 72.7397H19.8339L25.7696 60.4473Z" fill="#112235"/>
<path d="M14.4959 72.7397L8.45105 60.4473H10.5054L14.5005 68.6837L18.4955 60.4473H20.43L14.4959 72.7397Z" fill="#112235"/>
<path d="M41.9311 60.4473V62.2908H37.7916V72.7397H35.9784V62.2908H31.8174V60.4473H41.9311Z" fill="#112235"/>
<path d="M47.6624 60.4473L53.7087 72.7397H51.6528L47.6578 64.5048L43.6628 72.7397H41.7359L47.6624 60.4473Z" fill="#112235"/>
</svg>
