<svg width="103" height="103" viewBox="0 0 103 103" fill="none" xmlns="http://www.w3.org/2000/svg">
<path d="M40.5 11C38.9 12.8 37.4 13 27.8 13H17V17.1C17 20.3 17.4 21.3 18.9 21.7C20.8 22.2 20.9 23.6 21.2 53.8C21.5 83 21.7 85.7 23.4 88.3C26.4 92.7 30 94 39 94H47V90V86H39.5C33.2 86 31.9 85.7 31 84.1C30.4 82.9 30 70.9 30 52.1V22H51.5H73V39.9V57.9L76.8 57.3C78.8 57 80.8 56.2 81.2 55.6C81.6 55 82 47.2 82 38.4C82 23.1 82.1 22.2 84 21.7C85.6 21.3 86 20.3 86 17.1V13H75.2C65.6 13 64.1 12.8 62.5 11C60.9 9.3 59.4 8.99999 51.5 8.99999C43.6 8.99999 42.1 9.3 40.5 11Z" fill="#112235" fill-opacity="0.95"/>
<path d="M39 53.5V77H43H47V53.5V30H43H39V53.5Z" fill="#112235" fill-opacity="0.95"/>
<path d="M56 52.2C56.1 71.5 56.3 74.1 57.4 71.5C58.1 69.8 59.9 67.1 61.3 65.4C64 62.2 64 62.1 64 46.1V30H60H56V52.2Z" fill="#112235" fill-opacity="0.95"/>
<path d="M80.2 65C73.3 66.5 67.7 70 65.6 74.4C63.8 78 63.8 78.6 65.3 83.1C66.1 85.8 66.5 88.2 66.2 88.4C65.8 88.6 63.4 89.1 60.8 89.5L56 90.2V94.6C56 97 56.4 99 56.9 99C57.3 99 60.1 98.5 63.1 98C69.7 96.7 76.9 93.1 83.5 87.6C88.1 83.8 88.3 83.7 86.3 86.6C85.1 88.3 81.8 92.1 79.1 95C76.3 98 74.4 100.8 74.8 101.2C75.3 101.7 77.3 102.3 79.3 102.7C87.9 104.1 98.4 96 101.4 85.9C103.8 77.8 103.3 66.7 100.4 65.6C97.6 64.5 84.3 64.1 80.2 65Z" fill="#112235" fill-opacity="0.95"/>
</svg>
